PathFileType	4	(X/Y/Z)	./resultDataOpenSim/trcMotMarkerGrf/sub10/qtm-12-04.trc
DataRate	CameraRate	NumFrames	NumMarkers	Units	OrigDataRate	OrigDataStartFrame	OrigNumFrames
250.000000	250.000000	7	24	m	250.000000	419	478
Frame#	Time	L.Toe.Tip			R.Toe.Tip			L.Ankle.Lat			R.Ankle.Lat			L.Ankle.Med			R.Ankle.Med			L.Heel			R.Heel			L.Knee.Lat			R.Knee.Lat			L.Knee.Med			R.Knee.Med			L.Thigh.Upper			R.Thigh.Upper			L.ASIS			R.ASIS			V.Sacral			L.Acromium			R.Acromium			C7			L.Elbow			R.Elbow			L.Wrist.Lat			R.Wrist.Lat
		X1	Y1	Z1	X2	Y2	Z2	X3	Y3	Z3	X4	Y4	Z4	X5	Y5	Z5	X6	Y6	Z6	X7	Y7	Z7	X8	Y8	Z8	X9	Y9	Z9	X10	Y10	Z10	X11	Y11	Z11	X12	Y12	Z12	X13	Y13	Z13	X14	Y14	Z14	X15	Y15	Z15	X16	Y16	Z16	X17	Y17	Z17	X18	Y18	Z18	X19	Y19	Z19	X20	Y20	Z20	X21	Y21	Z21	X22	Y22	Z22	X23	Y23	Z23	X24	Y24	Z24

419	1.672	1.5820213	0.10253561	-0.076462327	0.8282142	0.038167597	0.05719058	1.453198	0.07036157	-0.10610295	0.70268299	0.10061771	0.089725965	1.4548056	0.097455764	-0.025727706	0.73476094	0.116432	0.007471526	1.4045843	0.019759979	-0.062973227	0.64792979	0.096444586	0.041966608	1.3376153	0.44215025	-0.13336891	0.93702917	0.42885572	0.12684168	1.3520747	0.42424595	-0.013911394	0.97396695	0.41958576	0.0051730666	1.1846839	0.7988452	-0.18855571	1.036195	0.82433626	0.17595459	1.2143658	0.90895874	-0.10548024	1.1389666	0.91567078	0.13284101	0.98390353	0.90755522	-0.057573228	1.0800909	1.376214	-0.16906209	1.0740019	1.3700511	0.15681259	0.99040951	1.3956888	-0.010517548	0.92253856	1.0729072	-0.20500312	1.1527325	1.0221472	0.22743114	0.96377544	0.84146302	-0.26925433	1.397776	1.0004551	0.18553917
420	1.676	1.5857452	0.097247761	-0.077073898	0.82865918	0.038134727	0.057270093	1.4554697	0.069192263	-0.10605181	0.70466607	0.1033363	0.090028844	1.457739	0.096093948	-0.025253737	0.73726108	0.11869117	0.0079442828	1.4052366	0.020169943	-0.062535957	0.6501052	0.10032833	0.04226137	1.3442599	0.44183045	-0.13330548	0.94281539	0.42882919	0.12681747	1.3593483	0.42437182	-0.013916891	0.98025191	0.41914203	0.0054348254	1.1917198	0.7989671	-0.18866669	1.0424737	0.8239149	0.17557629	1.2210982	0.90921101	-0.10553341	1.1456271	0.91537953	0.13263887	0.99061706	0.90735654	-0.057714025	1.0861594	1.3757677	-0.17002412	1.0804552	1.3699485	0.15591267	0.9965505	1.3952674	-0.011374247	0.92837016	1.0725617	-0.20527776	1.1581271	1.0215683	0.22623286	0.96934804	0.84094339	-0.26938253	1.4032041	0.99993899	0.18469005
421	1.68	1.5894286	0.091470782	-0.077614066	0.82910128	0.038064834	0.057382257	1.4577073	0.068349746	-0.10602013	0.70675447	0.10604234	0.090361319	1.4607208	0.095150905	-0.024886964	0.73995226	0.12100151	0.0084623507	1.4058525	0.021010466	-0.06217547	0.65248327	0.10433323	0.042578243	1.3507478	0.44158732	-0.13331911	0.94876841	0.42885504	0.12683465	1.3665695	0.4244262	-0.013948671	0.98667544	0.41870345	0.005692636	1.1988787	0.79911447	-0.18879734	1.0489063	0.82349199	0.17517506	1.2277737	0.90953829	-0.10562944	1.1523502	0.91509813	0.1324304	0.99727542	0.90716515	-0.057867199	1.0922708	1.3753517	-0.17101285	1.0869452	1.369913	0.15499886	1.0026935	1.3948918	-0.012265867	0.93432085	1.0722332	-0.2055473	1.1633937	1.0209569	0.2249172	0.97501666	0.8404329	-0.26949999	1.4085421	0.99932073	0.18387765
422	1.684	1.5928159	0.085830642	-0.078034924	0.82957271	0.037978997	0.057508132	1.4599054	0.067813782	-0.10596677	0.7089756	0.10883556	0.090730424	1.4637167	0.094544266	-0.02462966	0.74284711	0.12335677	0.0090251547	1.4065355	0.022104981	-0.061899299	0.65508049	0.10847131	0.042896593	1.3571111	0.44148061	-0.13342985	0.95489812	0.42893016	0.12689153	1.3737697	0.42445539	-0.014003097	0.99323502	0.41826078	0.0059436022	1.2061605	0.79932635	-0.18895905	1.0554889	0.82306096	0.17475193	1.2343916	0.90993575	-0.10578112	1.1591423	0.91483163	0.13218474	1.0038984	0.90701612	-0.058036377	1.0984298	1.3749778	-0.17202969	1.0934688	1.3699595	0.15408717	1.0088391	1.3945709	-0.013189145	0.9403862	1.0719218	-0.20582065	1.1685386	1.0203454	0.22349213	0.98080913	0.83993983	-0.26959306	1.4137934	0.9986011	0.18311129
423	1.688	1.5957926	0.080958037	-0.078290169	0.8301081	0.037909622	0.057620751	1.462059	0.067479495	-0.1059248	0.71139248	0.11184094	0.09117958	1.4666039	0.09412006	-0.024467526	0.74596114	0.12575106	0.0096230839	1.4073289	0.023237496	-0.061710265	0.6579065	0.11275816	0.043190944	1.3634145	0.44157249	-0.13363902	0.96119753	0.42902914	0.12694772	1.3809465	0.42454588	-0.014092371	0.99993628	0.41780841	0.0062019592	1.2135593	0.79965588	-0.18914575	1.0621928	0.82262592	0.17430647	1.2409611	0.91038909	-0.106002	1.1660235	0.91457761	0.13186907	1.0105057	0.90693171	-0.058222018	1.1046345	1.3746683	-0.17307357	1.1000364	1.3700936	0.15318722	1.0149942	1.394328	-0.014148072	0.9465523	1.0716209	-0.20612104	1.1735889	1.0197955	0.22200927	0.98673371	0.83947434	-0.26966204	1.4189585	0.99777791	0.18239862
424	1.692	1.5983828	0.077093977	-0.078270345	0.8307274	0.037869682	0.057717792	1.4641486	0.067235574	-0.10594152	0.71405689	0.11507958	0.091703653	1.4692523	0.093759927	-0.024381781	0.74930828	0.1281809	0.010242774	1.4082144	0.024289494	-0.06161845	0.66097197	0.11718328	0.04343769	1.3697499	0.44192126	-0.13392603	0.96764652	0.42913272	0.12698018	1.3880756	0.42480779	-0.014224765	1.0068036	0.41734023	0.0064974522	1.2210696	0.80016077	-0.18933345	1.0689847	0.82219691	0.17384573	1.2474938	0.91088946	-0.10629783	1.1729874	0.91433656	0.13147701	1.0171096	0.90693349	-0.058421553	1.1108782	1.3744401	-0.17413635	1.1066559	1.3703121	0.15229914	1.0211812	1.394189	-0.015135634	0.95281388	1.0713314	-0.20646661	1.1785947	1.0193465	0.22051901	0.99278286	0.83904838	-0.26971461	1.4240333	0.99685082	0.18173991
425	1.696	1.6006769	0.074034005	-0.077906556	0.83143934	0.037847813	0.057823897	1.4661306	0.067036364	-0.10603258	0.71700132	0.1184398	0.092220155	1.4716032	0.093433064	-0.024364098	0.75290504	0.13063858	0.010876318	1.4091367	0.025239454	-0.06162756	0.66431114	0.12168996	0.043620662	1.3762166	0.44256818	-0.13425857	0.97423434	0.42923364	0.12701399	1.3950955	0.42533039	-0.014383998	1.0138712	0.4168556	0.0068630287	1.228687	0.8008893	-0.18949428	1.0758577	0.82177843	0.17339006	1.2540051	0.91144634	-0.10666243	1.1799925	0.91411513	0.13102501	1.0237207	0.90704113	-0.058626302	1.117147	1.3742991	-0.17520448	1.1133305	1.3706126	0.1514165	1.0274365	1.3941674	-0.016132942	0.95915906	1.0710735	-0.20684616	1.1836114	1.0189725	0.21901157	0.99895134	0.83867637	-0.26975563	1.4290103	0.99582534	0.18112917
